<svg xmlns="http://www.w3.org/2000/svg" viewBox="0 0 128 128" role="img" aria-label="Black Hole logo">
  <defs>
    <radialGradient id="bg" cx="50%" cy="50%" r="58%">
      <stop offset="0%" stop-color="#220000" />
      <stop offset="65%" stop-color="#120202" />
      <stop offset="100%" stop-color="#070202" />
    </radialGradient>
    <radialGradient id="glow" cx="50%" cy="50%" r="50%">
      <stop offset="0%" stop-color="#fff6c9" />
      <stop offset="28%" stop-color="#ffd86a" />
      <stop offset="55%" stop-color="#ff9418" />
      <stop offset="82%" stop-color="#8d1800" />
      <stop offset="100%" stop-color="rgba(141,24,0,0)" />
    </radialGradient>
    <filter id="soft" x="-50%" y="-50%" width="200%" height="200%">
      <feGaussianBlur stdDeviation="5" />
    </filter>
  </defs>

  <rect width="128" height="128" rx="32" fill="url(#bg)" />
  <ellipse cx="64" cy="66" rx="42" ry="28" fill="#6d0700" opacity="0.32" filter="url(#soft)" />
  <path
    d="M37 73c8 16 23 24 38 24 16 0 29-6 38-19-6 22-24 36-48 36-21 0-36-12-46-31z"
    fill="url(#glow)"
    filter="url(#soft)"
    opacity="0.94"
  />
  <path
    d="M43 73c7 11 17 17 28 17 11 0 20-4 28-13-6 13-17 22-31 22-13 0-22-6-31-18z"
    fill="none"
    stroke="#fff0b0"
    stroke-width="8"
    stroke-linecap="round"
    filter="url(#soft)"
  />
  <circle cx="66" cy="61" r="17" fill="#1a0000" />
  <ellipse cx="44" cy="38" rx="14" ry="9" fill="#660000" opacity="0.35" filter="url(#soft)" />
  <ellipse cx="92" cy="88" rx="18" ry="10" fill="#590000" opacity="0.25" filter="url(#soft)" />
</svg>
